<svg xmlns="http://www.w3.org/2000/svg" width="11" height="11" fill="none"><path fill="#E4DFD3" d="M5.484.018c-.731.04-1.388.21-2.07.535a5.3 5.3 0 0 0-1.101.704 7 7 0 0 0-.58.584A5.5 5.5 0 0 0 .539 4.596c-.032.247-.038.35-.038.666 0 .384.017.591.079.93a5.6 5.6 0 0 0 1.013 2.306c.603.798 1.465 1.401 2.489 1.743a5.2 5.2 0 0 0 1.152.244c.175.018.727.02.895.004a5.2 5.2 0 0 0 1.936-.554A4.87 4.87 0 0 0 10 8.235a5.5 5.5 0 0 0 .873-2.381 5.27 5.27 0 0 0-.438-2.77c-.42-.938-1.016-1.654-1.813-2.178A5.8 5.8 0 0 0 6.946.169 5.2 5.2 0 0 0 5.484.018m.492.874c.454.032.906.136 1.33.308.962.39 1.651.983 2.134 1.834.498.879.689 1.818.567 2.791-.118.947-.608 1.942-1.27 2.581a4.2 4.2 0 0 1-1.108.77A4.3 4.3 0 0 1 6 9.625a6 6 0 0 1-.746-.013 4.4 4.4 0 0 1-1.393-.394 4.2 4.2 0 0 1-1.61-1.292A4.56 4.56 0 0 1 1.39 5.79c-.1-.82.033-1.63.39-2.398.454-.975 1.147-1.665 2.112-2.103A4.4 4.4 0 0 1 5.467.89c.092-.006.401-.005.509.003"/><path fill="#E4DFD3" d="M5.508 2.089a2.8 2.8 0 0 0-1.087.31c-.834.437-1.435 1.28-1.615 2.267-.04.226-.05.338-.05.625 0 .206.004.294.015.386.096.777.412 1.444.933 1.965q.68.682 1.603.823c.149.023.466.03.617.017a2.82 2.82 0 0 0 1.657-.742 3.2 3.2 0 0 0 .849-1.28l.014-.042-.046-.016-.882-.307c-.012-.002-.022.017-.054.096-.115.285-.27.52-.48.733-.476.476-1.104.663-1.712.509-.563-.143-1.05-.57-1.308-1.147a2.3 2.3 0 0 1-.21-1c0-.4.08-.743.256-1.089a2.1 2.1 0 0 1 .709-.808 1.75 1.75 0 0 1 1.73-.126c.196.093.362.213.53.383.123.123.235.263.307.385l.04.067.026-.015.418-.243c.217-.126.4-.233.408-.239.013-.008.008-.02-.05-.112-.444-.716-1.135-1.206-1.914-1.355a2.5 2.5 0 0 0-.478-.046z"/></svg>